<?xml version="1.0" standalone="no"?>
<!DOCTYPE svg PUBLIC "-//W3C//DTD SVG 20010904//EN"
 "http://www.w3.org/TR/2001/REC-SVG-20010904/DTD/svg10.dtd">
<svg version="1.0" xmlns="http://www.w3.org/2000/svg"
 width="626.000000pt" height="626.000000pt" viewBox="0 0 626.000000 626.000000"
 preserveAspectRatio="xMidYMid meet">

<g transform="translate(0.000000,626.000000) scale(0.100000,-0.100000)"
fill="#000000" stroke="none">
<path d="M3680 5545 c0 -14 2 -25 4 -25 2 0 6 11 8 25 3 14 1 25 -3 25 -5 0
-9 -11 -9 -25z"/>
<path d="M3702 5500 c0 -14 2 -19 5 -12 2 6 2 18 0 25 -3 6 -5 1 -5 -13z"/>
<path d="M3693 5385 c0 -27 2 -38 4 -22 2 15 2 37 0 50 -2 12 -4 0 -4 -28z"/>
<path d="M3604 5264 c-18 -14 -18 -14 6 -3 31 14 36 19 24 19 -6 0 -19 -7 -30
-16z"/>
<path d="M3539 5213 l-34 -38 38 34 c20 19 37 36 37 38 0 8 -8 0 -41 -34z"/>
<path d="M3490 5150 c-6 -11 -8 -20 -6 -20 3 0 10 9 16 20 6 11 8 20 6 20 -3
0 -10 -9 -16 -20z"/>
<path d="M4271 4820 c0 -8 4 -24 9 -35 l9 -20 0 20 c0 11 -4 27 -9 35 -9 13
-10 13 -9 0z"/>
<path d="M4522 4800 c0 -14 2 -19 5 -12 2 6 2 18 0 25 -3 6 -5 1 -5 -13z"/>
<path d="M4070 4675 c13 -14 26 -25 28 -25 3 0 -5 11 -18 25 -13 14 -26 25
-28 25 -3 0 5 -11 18 -25z"/>
<path d="M4729 4673 l-24 -28 28 24 c25 23 32 31 24 31 -2 0 -14 -12 -28 -27z"/>
<path d="M3528 4603 c7 -3 16 -2 19 1 4 3 -2 6 -13 5 -11 0 -14 -3 -6 -6z"/>
<path d="M3388 4593 c6 -2 18 -2 25 0 6 3 1 5 -13 5 -14 0 -19 -2 -12 -5z"/>
<path d="M3141 4578 c2 -2 22 -19 44 -38 l40 -35 -34 38 c-19 20 -39 37 -45
37 -5 0 -7 -1 -5 -2z"/>
<path d="M3142 4500 c0 -14 2 -19 5 -12 2 6 2 18 0 25 -3 6 -5 1 -5 -13z"/>
<path d="M3289 4448 c30 -32 57 -55 60 -53 2 3 2 6 0 8 -2 1 -29 24 -59 52
l-55 50 54 -57z"/>
<path d="M3612 4470 c0 -14 2 -19 5 -12 2 6 2 18 0 25 -3 6 -5 1 -5 -13z"/>
<path d="M3930 4470 c8 -5 22 -9 30 -9 10 0 8 3 -5 9 -27 12 -43 12 -25 0z"/>
<path d="M4855 4470 c-13 -6 -15 -9 -5 -9 8 0 22 4 30 9 18 12 2 12 -25 0z"/>
<path d="M3691 4433 c-8 -15 -11 -15 -26 -3 -15 12 -15 11 -4 -14 10 -20 10
-29 1 -38 -7 -7 -12 -17 -12 -22 0 -6 8 -2 16 9 14 19 16 19 25 3 6 -10 15
-18 21 -18 6 0 3 12 -7 26 -13 21 -15 31 -6 50 12 27 7 32 -8 7z"/>
<path d="M3153 4360 c0 -41 2 -58 4 -37 2 20 2 54 0 75 -2 20 -4 3 -4 -38z"/>
<path d="M3390 4355 c13 -14 26 -25 28 -25 3 0 -5 11 -18 25 -13 14 -26 25
-28 25 -3 0 5 -11 18 -25z"/>
<path d="M5121 4339 c-99 -50 -150 -136 -151 -254 0 -80 28 -151 77 -198 l30
-28 87 115 87 115 -7 140 -7 141 -27 0 c-15 0 -55 -14 -89 -31z"/>
<path d="M3623 4310 c0 -30 2 -43 4 -27 2 15 2 39 0 55 -2 15 -4 2 -4 -28z"/>
<path d="M3460 4295 c13 -14 26 -25 28 -25 3 0 -5 11 -18 25 -13 14 -26 25
-28 25 -3 0 5 -11 18 -25z"/>
<path d="M3920 4220 c-11 -8 -7 -9 15 -4 37 8 45 14 19 14 -10 0 -26 -5 -34
-10z"/>
<path d="M4855 4220 c27 -12 43 -12 25 0 -8 5 -22 9 -30 9 -10 0 -8 -3 5 -9z"/>
<path d="M3162 4185 c0 -16 2 -22 5 -12 2 9 2 23 0 30 -3 6 -5 -1 -5 -18z"/>
<path d="M2880 4170 c-24 -12 -58 -31 -75 -44 -21 -16 -55 -26 -115 -34 -47
-7 -105 -22 -130 -35 -84 -43 -140 -166 -125 -276 6 -42 3 -53 -26 -99 -43
-69 -52 -174 -21 -244 12 -28 16 -51 11 -59 -4 -7 -4 -18 0 -24 5 -5 11 -29
15 -53 15 -96 66 -159 133 -165 12 0 19 -6 16 -14 -6 -16 40 -117 73 -160 l25
-34 -25 -77 c-14 -42 -26 -84 -26 -92 1 -47 121 -227 142 -214 7 4 8 2 4 -5
-5 -7 8 -18 36 -31 l43 -20 21 26 c12 15 34 67 49 118 45 149 43 146 128 146
144 0 268 69 343 190 20 33 43 60 50 60 8 0 32 16 54 36 71 64 88 187 39 272
-27 46 -24 58 21 101 38 36 40 41 40 95 0 32 -5 66 -11 77 -6 11 -11 69 -12
127 -3 133 -25 191 -99 257 -59 53 -50 58 18 13 53 -36 88 -93 104 -168 l9
-45 -4 52 c-7 95 -71 179 -155 204 -34 10 -39 15 -34 33 6 21 6 21 -10 1 -8
-11 -16 -14 -16 -7 0 6 -4 12 -10 12 -5 0 -7 -7 -4 -15 5 -12 -3 -15 -43 -15
-41 0 -54 5 -77 29 -20 21 -24 30 -14 34 7 3 4 6 -9 6 -11 1 -45 13 -74 29
-73 37 -192 43 -259 12z m441 -557 c13 -16 12 -17 -3 -4 -17 13 -22 21 -14 21
2 0 10 -8 17 -17z m128 -62 c-6 -2 -18 4 -27 13 -15 15 -15 15 10 4 15 -7 23
-15 17 -17z m72 -273 c17 -64 -4 -141 -54 -195 -22 -25 -58 -34 -39 -10 13 15
48 144 58 209 7 55 19 54 35 -4z m-224 -100 c-3 -8 -6 -5 -6 6 -1 11 2 17 5
13 3 -3 4 -12 1 -19z m-546 -445 c13 -16 12 -17 -3 -4 -17 13 -22 21 -14 21 2
0 10 -8 17 -17z"/>
<path d="M3258 4123 c7 -3 16 -2 19 1 4 3 -2 6 -13 5 -11 0 -14 -3 -6 -6z"/>
<path d="M3298 4123 c6 -2 18 -2 25 0 6 3 1 5 -13 5 -14 0 -19 -2 -12 -5z"/>
<path d="M2557 4094 c-94 -29 -158 -128 -156 -238 l2 -51 8 62 c17 137 95 215
233 232 l61 8 -50 1 c-27 0 -72 -6 -98 -14z"/>
<path d="M4069 4013 l-24 -28 28 24 c25 23 32 31 24 31 -2 0 -14 -12 -28 -27z"/>
<path d="M4517 3855 c-71 -18 -130 -35 -133 -38 -3 -2 -2 -15 1 -29 l6 -24
146 37 c80 21 147 40 150 43 10 10 -9 46 -25 45 -9 0 -75 -16 -145 -34z"/>
<path d="M4560 3791 c-58 -15 -117 -31 -132 -34 -30 -8 -39 -43 -14 -53 10 -4
283 61 293 70 1 1 0 12 -4 24 -7 27 -13 27 -143 -7z"/>
<path d="M4544 3713 c-125 -34 -131 -36 -126 -59 2 -13 11 -24 19 -24 8 0 77
16 152 36 132 35 138 37 133 60 -6 31 -17 30 -178 -13z"/>
<path d="M4322 3420 c0 -14 2 -19 5 -12 2 6 2 18 0 25 -3 6 -5 1 -5 -13z"/>
<path d="M4108 3363 c6 -2 18 -2 25 0 6 3 1 5 -13 5 -14 0 -19 -2 -12 -5z"/>
<path d="M4048 3333 c-14 -16 -31 -39 -37 -53 -10 -22 -10 -22 1 -5 7 11 27
34 45 52 17 18 28 33 24 33 -4 0 -19 -12 -33 -27z"/>
<path d="M4158 3353 c7 -3 16 -2 19 1 4 3 -2 6 -13 5 -11 0 -14 -3 -6 -6z"/>
<path d="M4233 3333 c9 -2 25 -2 35 0 9 3 1 5 -18 5 -19 0 -27 -2 -17 -5z"/>
<path d="M4460 3251 c0 -28 -38 -53 -61 -40 -15 8 -22 3 -39 -32 l-21 -41 20
-15 c26 -18 27 -37 1 -61 -19 -18 -19 -18 6 -55 21 -32 28 -36 44 -27 26 14
60 -4 60 -30 0 -17 7 -20 45 -20 38 0 45 3 45 19 0 28 38 53 61 40 15 -8 22
-3 39 32 l21 41 -20 15 c-27 18 -27 49 -1 63 19 10 19 11 -6 50 -22 33 -29 38
-45 29 -25 -13 -59 5 -59 31 0 17 -7 20 -45 20 -38 0 -45 -3 -45 -19z m105
-96 c73 -73 -37 -184 -112 -113 -33 31 -32 90 3 117 36 28 79 27 109 -4z"/>
<path d="M4110 2877 c0 -44 -36 -67 -75 -49 -14 7 -28 12 -30 12 -2 0 -17 -25
-34 -57 -29 -52 -30 -57 -13 -69 9 -7 20 -14 25 -14 4 0 7 -16 7 -35 0 -26 -6
-39 -24 -50 l-24 -16 34 -59 35 -58 28 16 c26 15 30 15 55 -1 18 -12 26 -26
26 -47 l0 -30 70 0 70 0 0 33 c0 44 36 67 80 50 29 -11 30 -10 60 45 l31 57
-26 18 c-34 25 -34 71 0 93 27 18 27 19 -22 97 -23 36 -24 37 -51 23 -40 -20
-82 2 -82 44 l0 30 -70 0 -70 0 0 -33z m156 -131 c28 -28 34 -42 34 -75 0 -49
-22 -86 -61 -107 -101 -52 -207 54 -154 156 19 37 59 59 109 60 30 0 45 -7 72
-34z"/>
<path d="M2577 2298 c-4 -14 -34 -105 -68 -202 -42 -119 -66 -176 -77 -179
-12 -3 -11 -5 4 -6 19 -1 27 14 59 100 58 159 96 281 92 298 -2 10 -6 6 -10
-11z"/>
<path d="M2060 2156 c37 -21 382 -148 386 -143 7 7 -385 158 -405 157 -3 -1 5
-7 19 -14z"/>
<path d="M2806 2040 c-21 -67 -43 -123 -50 -124 -6 -2 -45 -11 -86 -20 -125
-28 -273 -105 -368 -190 -43 -39 -61 -38 -34 3 25 38 36 58 81 142 l40 77
-127 48 c-70 26 -165 62 -211 81 -47 18 -85 32 -86 30 -1 -1 -16 -23 -34 -50
-18 -26 -29 -52 -25 -59 4 -6 3 -8 -3 -5 -5 3 -26 -22 -47 -56 l-36 -62 40 -3
41 -3 -3 -97 -3 -97 -415 0 -415 0 -3 93 -3 92 -149 0 c-83 0 -153 0 -157 0
-4 0 -8 -42 -8 -93 l0 -92 -27 0 -28 1 0 -98 0 -98 -30 0 c-16 0 -30 -4 -30
-10 0 -6 115 -10 325 -10 l325 0 0 -70 0 -70 -327 0 c-228 -1 -323 -4 -311
-11 16 -9 18 -26 18 -124 l0 -115 40 0 40 0 0 -75 0 -75 624 0 c554 0 625 2
628 15 3 14 40 16 273 19 392 4 483 23 554 112 l34 41 136 -34 c75 -18 144
-38 153 -43 10 -6 28 -10 40 -10 13 0 57 -9 98 -20 99 -26 211 -26 330 1 52
12 102 24 110 28 8 4 74 23 147 42 l132 34 46 -23 c25 -12 51 -19 57 -16 6 4
8 2 4 -4 -3 -6 3 -13 14 -17 11 -3 20 -11 20 -16 0 -5 6 -9 14 -9 16 0 21 12
35 85 6 28 28 138 51 245 23 107 49 236 59 285 l18 90 -39 8 c-21 5 -38 14
-38 22 0 7 21 66 46 132 25 65 56 146 69 179 l23 62 -261 -91 c-251 -87 -265
-91 -336 -88 -58 2 -170 28 -485 113 -226 61 -420 113 -432 115 -18 4 -24 -8
-58 -117z m-1806 -241 c0 -19 -4 -20 -97 -17 -84 3 -98 6 -101 21 -3 15 7 17
97 17 96 0 101 -1 101 -21z m0 -49 c0 -19 -7 -20 -100 -20 -93 0 -100 1 -100
20 0 19 7 20 100 20 93 0 100 -1 100 -20z m0 -50 c0 -19 -7 -20 -100 -20 -93
0 -100 1 -100 20 0 19 7 20 100 20 93 0 100 -1 100 -20z m-140 -101 c0 -6 -9
-9 -20 -6 -13 3 -20 0 -20 -9 0 -8 7 -14 15 -14 8 0 15 -4 15 -10 0 -5 -7 -10
-15 -10 -8 0 -15 -4 -15 -10 0 -5 9 -10 20 -10 11 0 20 -5 20 -11 0 -6 -12 -9
-27 -7 -26 3 -28 7 -31 51 -3 46 -3 47 27 47 17 0 31 -5 31 -11z m80 -25 c0
14 5 28 10 31 6 4 10 -12 10 -39 0 -25 -3 -46 -7 -46 -5 0 -20 14 -34 31 l-26
32 5 -31 c2 -20 0 -32 -7 -32 -7 0 -11 19 -11 48 l1 47 29 -33 c30 -32 30 -32
30 -8z m116 24 c5 -7 0 -9 -14 -6 -28 8 -55 -13 -51 -38 4 -20 59 -34 59 -15
0 6 -7 11 -15 11 -8 0 -15 5 -15 10 0 6 9 10 20 10 28 0 28 -46 0 -55 -46 -15
-86 41 -54 76 19 21 59 25 70 7z m60 -68 c13 0 24 -5 24 -11 0 -6 -12 -9 -27
-7 -26 3 -28 6 -29 53 -1 45 -1 46 3 8 4 -38 7 -43 29 -43z m51 13 c-2 -16 -4
-5 -4 22 0 28 2 40 4 28 2 -13 2 -35 0 -50z m89 56 c4 -7 0 -9 -14 -5 -30 10
-38 -12 -9 -23 33 -13 42 -28 27 -46 -16 -19 -31 -19 -56 0 -18 14 -17 14 14
9 34 -7 46 12 15 23 -34 12 -44 25 -32 39 14 17 45 18 55 3z m65 -29 c13 0 19
7 19 21 0 11 5 17 10 14 6 -3 10 -24 10 -46 0 -21 -4 -39 -10 -39 -5 0 -10 7
-10 15 0 8 -9 15 -20 15 -12 0 -20 -7 -20 -17 0 -13 -3 -14 -8 -6 -4 7 -6 30
-3 50 4 27 6 31 9 16 2 -15 10 -23 23 -23z m563 14 c19 -19 20 -36 4 -52 -36
-36 -96 11 -62 49 21 23 37 24 58 3z m-144 -29 l0 -35 -155 0 -155 0 0 35 0
35 155 0 155 0 0 -35z m115 -390 l0 -119 -435 2 c-239 1 -486 2 -547 2 l-113
0 0 120 0 120 548 -2 547 -3 0 -120z m1292 59 c-3 -3 -12 -4 -19 -1 -8 3 -5 6
6 6 11 1 17 -2 13 -5z m-1719 -212 c-13 -2 -18 -14 -20 -45 l-1 -42 -4 43 c-3
31 -8 42 -21 42 -13 0 -14 2 -4 9 7 4 25 6 40 2 19 -3 22 -6 10 -9z m-168 -7
c20 18 20 17 18 -31 -1 -37 -2 -41 -5 -16 -4 28 -7 31 -19 21 -11 -9 -17 -9
-28 0 -12 10 -15 7 -19 -21 -3 -25 -4 -21 -5 16 -2 48 -2 49 18 31 19 -17 21
-17 40 0z m100 -31 c7 -19 9 -38 6 -41 -3 -4 -6 -1 -6 5 0 16 -50 15 -51 0 0
-9 -2 -10 -5 -1 -7 16 24 86 35 79 5 -4 15 -22 21 -42z m120 26 c0 -27 28 -25
40 3 7 17 9 11 8 -28 0 -27 -3 -40 -5 -27 -6 29 -43 31 -43 2 0 -11 -4 -20
-10 -20 -5 0 -10 20 -10 45 0 25 5 45 10 45 6 0 10 -9 10 -20z"/>
<path d="M3350 2105 c-14 -8 -20 -14 -14 -15 5 0 19 7 30 15 24 18 16 19 -16
0z"/>
</g>
</svg>
